<svg id="drops" xmlns="http://www.w3.org/2000/svg" width="722" height="790" viewBox="0 0 722 790">
  <defs>
    <style>
      .cls-1 {
        fill: #f3b703;
      }

      .cls-1, .cls-2, .cls-3, .cls-4 {
        fill-rule: evenodd;
      }

      .cls-2 {
        fill: #bab862;
      }

      .cls-3 {
        fill: #fff;
      }

      .cls-4 {
        fill: #f60;
      }
    </style>
  </defs>
  <path id="drop" data-name="Relleno de color 4" class="cls-1" d="M563,29l9,1c9.591,4.682,11.948,25.287,9,39-5.133,6.728-16.055,15.536-25,18l-3-3C548.848,61.364,548.438,40.861,563,29Z"/>
  <path id="drop" data-name="Relleno de color 3" class="cls-2" d="M393,671c16.476-.774,31.014.17,36,11,2.058,3.448,1.916,6.6,1,11-4.99,6.428-25.467,14.539-38,9-8.8-3.808-20.794-19.679-17-27Z"/>
  <path id="drop" data-name="Relleno de color 2" class="cls-3" d="M594,77c31.122-.947,65,1.616,74,23l-3,11-11,8-56-11c-15.349-2.392-26.573,7.724-38,1v-5C570.349,88.217,575.314,85.154,594,77ZM106,176c15.291,2.071,16.839,21.078,27,29q-0.5,1-1,2c-12.724,1.161-22.594.781-27-9-2.143-3.457-3.2-13.372-1-18Q105,178,106,176ZM348,679c45.8,2.235,38.576,85.25,15,107-10.433.174-16.839-2.9-20-10l-1-3c-4.256-12.962,4.865-31.274,7-44,2.937-17.5-7.63-35.092-3-47Z"/>
  <path id="drop" data-name="Relleno de color 1" class="cls-4" d="M63,213c26.722-.492,50.105,9.74,66,21q1,8,2,16l-25-11c-19.814-4.277-45.178,4.067-53-12l-1-5C55.593,217.336,57.945,216.267,63,213Z"/>
</svg>
